<?xml version="1.0" encoding="utf-8"?>
<!-- Generator: Adobe Illustrator 16.0.0, SVG Export Plug-In . SVG Version: 6.00 Build 0)  -->
<!DOCTYPE svg PUBLIC "-//W3C//DTD SVG 1.1//EN" "http://www.w3.org/Graphics/SVG/1.1/DTD/svg11.dtd">
<svg version="1.1" id="图层_1" xmlns="http://www.w3.org/2000/svg" xmlns:xlink="http://www.w3.org/1999/xlink" x="0px" y="0px"
	 width="76px" height="76px" viewBox="0 0 76 76" enable-background="new 0 0 76 76" xml:space="preserve">
<path fill="#E60012" d="M53.605,38"/>
<path fill="#333333" d="M51.52,30.625L35.105,47.076c-0.471,0.474-1.232,0.474-1.705,0.002l-8.918-8.896
	c-0.471-0.47-0.473-1.232-0.002-1.703c0.471-0.472,1.232-0.472,1.705-0.002l8.064,8.045l15.563-15.6
	c0.471-0.47,1.234-0.472,1.707-0.002C51.988,29.39,51.99,30.153,51.52,30.625L51.52,30.625L51.52,30.625z"/>
<g>
	<path fill="#333333" d="M51.146,56.273H24.854c-2.828,0-5.127-2.3-5.127-5.126V24.853c0-2.825,2.299-5.126,5.127-5.126h26.293
		c2.828,0,5.127,2.301,5.127,5.126v26.295C56.273,53.974,53.975,56.273,51.146,56.273z M24.854,21.459
		c-1.871,0-3.395,1.521-3.395,3.394v26.295c0,1.872,1.523,3.394,3.395,3.394h26.293c1.873,0,3.395-1.521,3.395-3.394V24.853
		c0-1.872-1.521-3.394-3.395-3.394H24.854z"/>
</g>
</svg>
