<?xml version="1.0" encoding="utf-8"?>
<!-- Generator: Adobe Illustrator 16.0.0, SVG Export Plug-In . SVG Version: 6.00 Build 0)  -->
<!DOCTYPE svg PUBLIC "-//W3C//DTD SVG 1.1//EN" "http://www.w3.org/Graphics/SVG/1.1/DTD/svg11.dtd">
<svg version="1.1" id="图层_1" xmlns="http://www.w3.org/2000/svg" xmlns:xlink="http://www.w3.org/1999/xlink" x="0px" y="0px"
	 width="76px" height="76px" viewBox="0 0 76 76" enable-background="new 0 0 76 76" xml:space="preserve">
<g>
	<g>
		<path fill="#333333" d="M51.148,57.035H24.854c-2.828,0-5.127-2.3-5.127-5.126V25.614c0-2.825,2.299-5.126,5.127-5.126h26.295
			c2.826,0,5.125,2.301,5.125,5.126v26.295C56.273,54.735,53.975,57.035,51.148,57.035z M24.854,22.22
			c-1.871,0-3.395,1.521-3.395,3.394v26.295c0,1.872,1.523,3.394,3.395,3.394h26.295c1.871,0,3.395-1.521,3.395-3.394V25.614
			c0-1.872-1.523-3.394-3.395-3.394H24.854z"/>
	</g>
	<path fill="#333333" d="M47.457,46.751c0.398,0.397,0.398,1.045,0,1.444c-0.396,0.399-1.045,0.399-1.443,0.001l-8.012-7.992
		l-7.992,8.011c-0.398,0.399-1.045,0.399-1.443,0.001c-0.4-0.397-0.4-1.044-0.002-1.444l7.992-8.011l-8.012-7.99
		c-0.4-0.397-0.4-1.045-0.002-1.443c0.398-0.4,1.045-0.4,1.443-0.001L38,37.319l7.992-8.011c0.398-0.4,1.045-0.4,1.445-0.002
		c0.398,0.397,0.398,1.045,0,1.444l-7.992,8.011L47.457,46.751L47.457,46.751L47.457,46.751z"/>
</g>
</svg>
